<svg width="131" height="35" viewBox="0 0 131 35" fill="none" xmlns="http://www.w3.org/2000/svg">
<path d="M13.0898 27.0303L10.9805 21.5928H4.11328L2.01562 27.0303H0L6.70312 9.82715H8.49609L15.1523 27.0303H13.0898ZM10.3828 19.8232L8.37891 14.4209C8.33203 14.2803 8.25391 14.0498 8.14453 13.7295C8.04297 13.4092 7.9375 13.0771 7.82812 12.7334C7.71875 12.3896 7.62891 12.1123 7.55859 11.9014C7.48047 12.2217 7.39453 12.542 7.30078 12.8623C7.21484 13.1748 7.12891 13.4678 7.04297 13.7412C6.95703 14.0068 6.88281 14.2334 6.82031 14.4209L4.78125 19.8232H10.3828ZM22.3828 27.2646C21.2266 27.2646 20.207 27.0264 19.3242 26.5498C18.4414 26.0732 17.7539 25.3467 17.2617 24.3701C16.7695 23.3936 16.5234 22.1631 16.5234 20.6787C16.5234 19.124 16.7812 17.8545 17.2969 16.8701C17.8203 15.8779 18.5391 15.1436 19.4531 14.667C20.3672 14.1904 21.4062 13.9521 22.5703 13.9521C23.2109 13.9521 23.8281 14.0186 24.4219 14.1514C25.0234 14.2764 25.5156 14.4365 25.8984 14.6318L25.3125 16.2607C24.9219 16.1045 24.4688 15.9639 23.9531 15.8389C23.4453 15.7139 22.9688 15.6514 22.5234 15.6514C21.6328 15.6514 20.8906 15.8428 20.2969 16.2256C19.7109 16.6084 19.2695 17.1709 18.9727 17.9131C18.6836 18.6553 18.5391 19.5693 18.5391 20.6553C18.5391 21.6943 18.6797 22.5811 18.9609 23.3154C19.25 24.0498 19.6758 24.6123 20.2383 25.0029C20.8086 25.3857 21.5195 25.5771 22.3711 25.5771C23.0508 25.5771 23.6641 25.5068 24.2109 25.3662C24.7578 25.2178 25.2539 25.0459 25.6992 24.8506V26.585C25.2695 26.8037 24.7891 26.9717 24.2578 27.0889C23.7344 27.2061 23.1094 27.2646 22.3828 27.2646ZM33.8906 27.2646C32.7344 27.2646 31.7148 27.0264 30.832 26.5498C29.9492 26.0732 29.2617 25.3467 28.7695 24.3701C28.2773 23.3936 28.0312 22.1631 28.0312 20.6787C28.0312 19.124 28.2891 17.8545 28.8047 16.8701C29.3281 15.8779 30.0469 15.1436 30.9609 14.667C31.875 14.1904 32.9141 13.9521 34.0781 13.9521C34.7188 13.9521 35.3359 14.0186 35.9297 14.1514C36.5312 14.2764 37.0234 14.4365 37.4062 14.6318L36.8203 16.2607C36.4297 16.1045 35.9766 15.9639 35.4609 15.8389C34.9531 15.7139 34.4766 15.6514 34.0312 15.6514C33.1406 15.6514 32.3984 15.8428 31.8047 16.2256C31.2188 16.6084 30.7773 17.1709 30.4805 17.9131C30.1914 18.6553 30.0469 19.5693 30.0469 20.6553C30.0469 21.6943 30.1875 22.5811 30.4688 23.3154C30.7578 24.0498 31.1836 24.6123 31.7461 25.0029C32.3164 25.3857 33.0273 25.5771 33.8789 25.5771C34.5586 25.5771 35.1719 25.5068 35.7188 25.3662C36.2656 25.2178 36.7617 25.0459 37.207 24.8506V26.585C36.7773 26.8037 36.2969 26.9717 35.7656 27.0889C35.2422 27.2061 34.6172 27.2646 33.8906 27.2646Z" fill="white"/>
<path d="M51.25 22.8225C51.25 22.2487 51.7297 21.7835 52.3214 21.7835H57.6786C58.2703 21.7835 58.75 22.2487 58.75 22.8225V26.1126C58.75 26.6863 58.2703 27.1515 57.6786 27.1515H52.3214C51.7297 27.1515 51.25 26.6863 51.25 26.1126V22.8225Z" stroke="white" stroke-width="1.6" stroke-linecap="round" stroke-linejoin="round"/>
<path d="M47.4998 25.8354C45.0546 25.3541 43.2141 23.2577 43.2141 20.7445C43.2141 18.2313 45.0546 16.1349 47.4998 15.6536C47.4998 15.6479 47.4998 15.6421 47.4998 15.6364C47.4998 11.9545 50.5779 8.96973 54.3749 8.96973C58.1718 8.96973 61.2499 11.9545 61.2499 15.6364C61.2499 15.8406 61.2404 16.0428 61.2218 16.2425H61.2499C64.0113 16.2425 66.2499 18.4132 66.2499 21.0909C66.2499 23.3501 64.6564 25.2484 62.4999 25.7867" stroke="white" stroke-width="1.6" stroke-linecap="round" stroke-linejoin="round"/>
<path d="M53.3929 20.2251C53.3929 19.3644 54.1124 18.6667 55 18.6667C55.8876 18.6667 56.6071 19.3644 56.6071 20.2251V21.7835H53.3929V20.2251Z" stroke="white" stroke-width="1.6" stroke-linecap="round" stroke-linejoin="round"/>
<path d="M81.0117 22.4717C81.0117 23.4873 80.7578 24.3545 80.25 25.0732C79.75 25.7842 79.0469 26.3271 78.1406 26.7021C77.2344 27.0771 76.168 27.2646 74.9414 27.2646C74.293 27.2646 73.6797 27.2334 73.1016 27.1709C72.5234 27.1084 71.9922 27.0186 71.5078 26.9014C71.0234 26.7842 70.5977 26.6396 70.2305 26.4678V24.5576C70.8164 24.7998 71.5312 25.0264 72.375 25.2373C73.2188 25.4404 74.1016 25.542 75.0234 25.542C75.8828 25.542 76.6094 25.4287 77.2031 25.2021C77.7969 24.9678 78.2461 24.6357 78.5508 24.2061C78.8633 23.7686 79.0195 23.2451 79.0195 22.6357C79.0195 22.0498 78.8906 21.5615 78.6328 21.1709C78.375 20.7725 77.9453 20.4131 77.3438 20.0928C76.75 19.7646 75.9375 19.417 74.9062 19.0498C74.1797 18.792 73.5391 18.5107 72.9844 18.2061C72.4297 17.8936 71.9648 17.542 71.5898 17.1514C71.2148 16.7607 70.9297 16.3076 70.7344 15.792C70.5469 15.2764 70.4531 14.6865 70.4531 14.0225C70.4531 13.1084 70.6836 12.3271 71.1445 11.6787C71.6133 11.0225 72.2578 10.5225 73.0781 10.1787C73.9062 9.82715 74.8555 9.65137 75.9258 9.65137C76.8398 9.65137 77.6836 9.7373 78.457 9.90918C79.2383 10.0811 79.9531 10.3115 80.6016 10.6006L79.9805 12.3115C79.3633 12.0537 78.707 11.8389 78.0117 11.667C77.3242 11.4951 76.6133 11.4092 75.8789 11.4092C75.1445 11.4092 74.5234 11.5186 74.0156 11.7373C73.5156 11.9482 73.1328 12.249 72.8672 12.6396C72.6016 13.0303 72.4688 13.4951 72.4688 14.0342C72.4688 14.6357 72.5938 15.1357 72.8438 15.5342C73.1016 15.9326 73.5078 16.2881 74.0625 16.6006C74.625 16.9053 75.3672 17.2256 76.2891 17.5615C77.2969 17.9287 78.1523 18.3193 78.8555 18.7334C79.5586 19.1396 80.0938 19.6396 80.4609 20.2334C80.8281 20.8193 81.0117 21.5654 81.0117 22.4717ZM89.0273 13.9756C90.5586 13.9756 91.6953 14.3193 92.4375 15.0068C93.1797 15.6943 93.5508 16.792 93.5508 18.2998V27.0303H92.1328L91.7578 25.1318H91.6641C91.3047 25.6006 90.9297 25.9951 90.5391 26.3154C90.1484 26.6279 89.6953 26.8662 89.1797 27.0303C88.6719 27.1865 88.0469 27.2646 87.3047 27.2646C86.5234 27.2646 85.8281 27.1279 85.2188 26.8545C84.6172 26.5811 84.1406 26.167 83.7891 25.6123C83.4453 25.0576 83.2734 24.3545 83.2734 23.5029C83.2734 22.2217 83.7812 21.2373 84.7969 20.5498C85.8125 19.8623 87.3594 19.4873 89.4375 19.4248L91.6523 19.3311V18.5459C91.6523 17.4365 91.4141 16.6592 90.9375 16.2139C90.4609 15.7686 89.7891 15.5459 88.9219 15.5459C88.25 15.5459 87.6094 15.6436 87 15.8389C86.3906 16.0342 85.8125 16.2646 85.2656 16.5303L84.668 15.0537C85.2461 14.7568 85.9102 14.5029 86.6602 14.292C87.4102 14.0811 88.1992 13.9756 89.0273 13.9756ZM91.6289 20.7021L89.6719 20.7842C88.0703 20.8467 86.9414 21.1084 86.2852 21.5693C85.6289 22.0303 85.3008 22.6826 85.3008 23.5264C85.3008 24.2607 85.5234 24.8037 85.9688 25.1553C86.4141 25.5068 87.0039 25.6826 87.7383 25.6826C88.8789 25.6826 89.8125 25.3662 90.5391 24.7334C91.2656 24.1006 91.6289 23.1514 91.6289 21.8857V20.7021ZM100.383 27.0303L95.5078 14.1865H97.5938L100.418 21.9561C100.613 22.4873 100.812 23.0732 101.016 23.7139C101.219 24.3545 101.359 24.8701 101.438 25.2607H101.52C101.613 24.8701 101.77 24.3545 101.988 23.7139C102.207 23.0654 102.406 22.4795 102.586 21.9561L105.41 14.1865H107.496L102.609 27.0303H100.383ZM114.504 13.9521C115.598 13.9521 116.535 14.1943 117.316 14.6787C118.098 15.1631 118.695 15.8428 119.109 16.7178C119.523 17.585 119.73 18.6006 119.73 19.7646V20.9717H110.859C110.883 22.4795 111.258 23.6279 111.984 24.417C112.711 25.2061 113.734 25.6006 115.055 25.6006C115.867 25.6006 116.586 25.5264 117.211 25.3779C117.836 25.2295 118.484 25.0107 119.156 24.7217V26.4326C118.508 26.7217 117.863 26.9326 117.223 27.0654C116.59 27.1982 115.84 27.2646 114.973 27.2646C113.738 27.2646 112.66 27.0146 111.738 26.5146C110.824 26.0068 110.113 25.2646 109.605 24.2881C109.098 23.3115 108.844 22.1162 108.844 20.7021C108.844 19.3193 109.074 18.124 109.535 17.1162C110.004 16.1006 110.66 15.3193 111.504 14.7725C112.355 14.2256 113.355 13.9521 114.504 13.9521ZM114.48 15.5459C113.441 15.5459 112.613 15.8857 111.996 16.5654C111.379 17.2451 111.012 18.1943 110.895 19.4131H117.691C117.684 18.6475 117.562 17.9756 117.328 17.3975C117.102 16.8115 116.754 16.3584 116.285 16.0381C115.816 15.71 115.215 15.5459 114.48 15.5459ZM128.871 13.9521C129.129 13.9521 129.398 13.9678 129.68 13.999C129.961 14.0225 130.211 14.0576 130.43 14.1045L130.184 15.9092C129.973 15.8545 129.738 15.8115 129.48 15.7803C129.223 15.749 128.98 15.7334 128.754 15.7334C128.238 15.7334 127.75 15.8389 127.289 16.0498C126.836 16.2529 126.438 16.5498 126.094 16.9404C125.75 17.3232 125.48 17.7881 125.285 18.335C125.09 18.874 124.992 19.4756 124.992 20.1396V27.0303H123.035V14.1865H124.652L124.863 16.5537H124.945C125.211 16.0771 125.531 15.6436 125.906 15.2529C126.281 14.8545 126.715 14.5381 127.207 14.3037C127.707 14.0693 128.262 13.9521 128.871 13.9521Z" fill="white"/>
</svg>
